# xmcd
#
# Track frame offsets:
#	150
#	14045
#	28525
#	45450
#	58270
#	74662
#	93470
#	105855
#	122695
#	133952
#	147240
#	162347
#
# Disc length: 2346 seconds
#
# Revision: 0
# Processed by: cddbd v1.4PL0 Copyright (c) Steve Scherf et al.
# Submitted via: audiograbber 1.81.01
#
DISCID=ad09280c
DTITLE=Rosanna fratello - I grandi successi originali cd2
DYEAR=1900
DGENRE=pop
TTITLE0=Il tango delle capinere
TTITLE1=Sono una donna, non sono una santa
TTITLE2=Stasera tu è io 
TTITLE3=Un incontro casuale
TTITLE4=La spagnola
TTITLE5=Lacreme napulitane
TTITLE6=Lu suli sinni va
TTITLE7=Mare nostro
TTITLE8=Gigolò
TTITLE9=O' suldato innamorato
TTITLE10=Caro amore mio
TTITLE11=Nuvole bianche
EXTD=
EXTT0=
EXTT1=
EXTT2=
EXTT3=
EXTT4=
EXTT5=
EXTT6=
EXTT7=
EXTT8=
EXTT9=
EXTT10=
EXTT11=
PLAYORDER=
